# xmcd
#
# Track frame offsets: 
#        150
#        12293
#        24581
#        36871
#        48506
#        60591
#        72531
#        84998
#        97976
#        108566
#        120528
#        133143
#        148196
#        157686
#        170178
#        182791
#        193968
#        206021
#        216811
#        225871
#        238058
#        247523
#        259926
#        272903
#        284858
#        297413
#        310626
#        321838
#        334892
#
# Disc length: 4630 seconds
#
# Revision: 0
# Processed by: cddbd v1.4PL0 Copyright (c) Steve Scherf et al.
# Submitted via: ExactAudioCopy v0.90b3
#
DISCID=b812141d
DTITLE=Ernest Tubb and The Texas Troubadours - Waltz Across Texas - CD4
DYEAR=1998
DGENRE=Country
TTITLE0=Two In The Cold
TTITLE1=Mr. and Mrs. Used To Be
TTITLE2=Pass The Booze
TTITLE3=(A Memory) That's All You'll Ever Be To Me
TTITLE4=Turn Around Walk Away
TTITLE5=Red Top
TTITLE6=Hello World
TTITLE7=The Last Goodbye
TTITLE8=That's When It's Coming Home To You
TTITLE9=Oklahoma Hills
TTITLE10=Just A Stone's Throw Away
TTITLE11=Another Bridge To Burn
TTITLE12=Almost To Tulsa
TTITLE13=Highway Man
TTITLE14=Leon's Guitar Boogie
TTITLE15=Honky Tonks And You
TTITLE16=Twilight Over Texas
TTITLE17=Detour
TTITLE18=C-Jam Blues
TTITLE19=What About Me
TTITLE20=Leon's Guitar Boogie
TTITLE21=Are You Mine (with Loretta Lynn)
TTITLE22=Just Between The Two Of Us (with Loretta Lynn)
TTITLE23=Lots Of Luck
TTITLE24=(My Friends Are Gonna Be) Strangers
TTITLE25=Do What You Do Do Well
TTITLE26=Throw Your Love My Way
TTITLE27=The Wild Side Of Life
TTITLE28=Leon's Guitar Boogie (different take)
EXTD=
EXTT0=
EXTT1=
EXTT2=
EXTT3=
EXTT4=
EXTT5=
EXTT6=
EXTT7=
EXTT8=
EXTT9=
EXTT10=
EXTT11=
EXTT12=
EXTT13=
EXTT14=
EXTT15=
EXTT16=
EXTT17=
EXTT18=
EXTT19=
EXTT20=
EXTT21=
EXTT22=
EXTT23=
EXTT24=
EXTT25=
EXTT26=
EXTT27=
EXTT28=
PLAYORDER=
